<svg width="22" height="22" viewBox="0 0 22 22" fill="none" xmlns="http://www.w3.org/2000/svg">
<g clip-path="url(#clip0)">
<path d="M19.158 3.82463L19.0367 1.776C19.0151 1.43816 18.7336 1.1783 18.3914 1.19995C18.0536 1.22161 17.798 1.50746 17.8153 1.84529L17.85 2.44733C16.0829 1.12632 13.939 0.407349 11.6868 0.407349C8.93214 0.407349 6.3421 1.48148 4.39741 3.42617C4.1592 3.66438 4.1592 4.04985 4.39741 4.2924C4.72658 4.62157 5.14237 4.41367 5.26364 4.2924C6.97878 2.57726 9.2613 1.62874 11.6911 1.62874C13.6228 1.62874 15.4592 2.22644 16.9924 3.33521L16.464 3.36986C16.1262 3.39152 15.8707 3.67737 15.888 4.01521C15.9053 4.34004 16.1782 4.59125 16.4987 4.59125C16.5117 4.59125 18.582 4.46998 18.582 4.46998C18.9198 4.44832 19.1753 4.16246 19.158 3.82463Z" fill="#BDBDBD"/>
<path d="M9.33533 19.4948C4.97818 18.3297 2.2149 14.1674 2.64802 9.81896L2.9382 10.2564C3.05514 10.434 3.42762 10.6462 3.78278 10.4297C4.06864 10.2521 4.14227 9.8666 3.95603 9.58508L2.82992 7.86994C2.73897 7.73567 2.60037 7.64039 2.44445 7.60574C2.2842 7.57542 2.11961 7.60574 1.98535 7.69236L0.27454 8.81846C-0.00698567 9.0047 -0.0849466 9.38151 0.101293 9.66304C0.287533 9.94456 0.664344 10.0225 0.94587 9.83629L1.45262 9.50279C0.859246 14.5096 4.01666 19.3345 9.01915 20.6728C9.07113 20.6858 9.61252 20.7508 9.76844 20.2397C9.86806 19.9192 9.6645 19.5814 9.33533 19.4948Z" fill="#BDBDBD"/>
<path d="M21.6504 8.04751C21.5638 7.72267 21.226 7.52777 20.9011 7.61439C20.5763 7.70101 20.3814 8.03884 20.468 8.36368C21.6331 12.7208 19.4155 17.1992 15.4309 18.9967L15.6648 18.5246C15.8163 18.2214 15.6951 17.8576 15.3919 17.706C15.0887 17.5544 14.7206 17.6757 14.5733 17.9789L13.6551 19.8109C13.5035 20.1141 13.6248 20.4779 13.928 20.6295L15.76 21.5477C15.8467 21.591 16.3361 21.6993 16.5786 21.2749C16.7475 20.9804 16.6089 20.6079 16.3058 20.4563L15.7557 20.1791C20.39 18.1954 22.9887 13.0543 21.6504 8.04751Z" fill="#BDBDBD"/>
<path d="M8.86734 12.9114L9.96746 11.7636C10.3962 11.3175 11.0892 10.6851 11.0892 9.76261C11.0892 9.18656 10.6474 7.90021 9.10988 7.90021C7.94047 7.90021 7.16086 8.80109 6.875 9.24287L7.96212 9.88821C8.30429 9.34248 8.6681 9.06962 9.04925 9.06962C9.78988 9.06962 9.76389 9.5807 9.76389 9.78426C9.76389 10.3213 9.12288 10.9234 8.76339 11.2915L6.97895 13.1193V14.1284H11.2711V12.9114H8.86734Z" fill="#BDBDBD"/>
<path d="M15.8094 11.4951V10.434H14.5057V11.4951H13.6438L15.7054 8.03888H14.2285L12.0586 11.6337V12.6689H14.5057V14.1242H15.8094V12.6689H16.498V11.4951H15.8094Z" fill="#BDBDBD"/>
<path d="M17.9799 7.25492C17.772 7.25492 17.5857 7.33721 17.4212 7.50613V6.53595H16.8711V9.25592H17.4212V8.19045C17.4212 8.03453 17.4601 7.72269 17.8326 7.72269C18.0535 7.72269 18.1661 7.87428 18.1661 8.17746V9.25592H18.7162V8.06052C18.7162 7.67071 18.4736 7.25492 17.9799 7.25492Z" fill="#BDBDBD"/>
</g>
<defs>
<clipPath id="clip0">
<rect width="22" height="22" fill="white"/>
</clipPath>
</defs>
</svg>
