<svg width="16" height="16" viewBox="0 0 16 16" fill="none" xmlns="http://www.w3.org/2000/svg">
<g clip-path="url(#clip0)">
<path d="M0.468054 12.2189H12.7186C12.8285 12.2189 12.9347 12.1805 13.0189 12.1104C13.1366 12.0119 15.8206 9.70289 15.9843 4.7186H2.82747C2.66443 9.243 0.19251 11.3696 0.166821 11.3908C0.0162208 11.5181 -0.039188 11.7259 0.0285651 11.9109C0.0958494 12.0954 0.271201 12.2189 0.468054 12.2189Z" fill="#939393"/>
<path d="M15.5318 1.90597H13.188V1.4372C13.188 1.17469 12.9817 0.96843 12.7192 0.96843C12.4567 0.96843 12.2504 1.17469 12.2504 1.4372V1.90597H9.87532V1.4372C9.87532 1.17469 9.66906 0.96843 9.40655 0.96843C9.14403 0.96843 8.93777 1.17469 8.93777 1.4372V1.90597H6.59392V1.4372C6.59392 1.17469 6.38766 0.96843 6.12515 0.96843C5.86264 0.96843 5.65638 1.17469 5.65638 1.4372V1.90597H3.31252C3.05001 1.90597 2.84375 2.11223 2.84375 2.37474V3.78106H16.0006V2.37474C16.0006 2.11223 15.7943 1.90597 15.5318 1.90597Z" fill="#939393"/>
<path d="M13.6215 12.8292C13.3669 13.0411 13.0474 13.1565 12.7192 13.1565H2.84375V14.5628C2.84375 14.8219 3.05342 15.0316 3.31252 15.0316H15.5318C15.7909 15.0316 16.0006 14.8219 16.0006 14.5628V9.30803C15.0968 11.5253 13.8356 12.65 13.6215 12.8292Z" fill="#939393"/>
</g>
<defs>
<clipPath id="clip0">
<rect width="16" height="16" fill="white"/>
</clipPath>
</defs>
</svg>
