<svg width="606" height="779" viewBox="0 0 606 779" fill="none" xmlns="http://www.w3.org/2000/svg">
<g filter="url(#filter0_f)">
<path d="M181.797 245.851C194.972 240.596 207.498 223.355 210.838 211.923C211.302 210.356 209.632 208.696 208.054 209.157C193.302 214.043 184.116 230.823 176.323 243.915C175.58 244.191 174.838 244.56 174.189 244.837C172.89 245.298 172.983 247.142 174.374 247.326C173.446 249.354 176.23 251.106 177.9 249.631C179.385 248.617 180.591 247.326 181.797 245.851ZM188.292 236.724C192.931 229.071 197.013 221.05 204.621 216.072C201.281 223.54 195.25 231.007 188.292 236.724Z" fill="#E7E7E9" fill-opacity="0.5"/>
<path d="M198.869 16.6523C198.869 16.8367 198.869 17.0211 198.776 17.2055V17.482C197.848 23.9357 197.663 30.4817 198.312 36.9354C198.312 37.5808 198.312 38.3183 198.405 38.9636C198.405 39.148 198.498 39.2403 198.591 39.3325C195.621 57.2184 194.508 75.1966 193.116 93.2669C193.024 93.1747 193.024 93.0825 192.931 92.9903C192.189 88.2883 190.982 83.5863 188.106 80.5439C187.828 79.2532 187.549 78.0546 187.364 77.2249C185.879 72.5229 184.302 67.36 180.683 63.6721C179.385 62.3814 177.529 63.3956 177.343 65.0551C176.323 79.2532 182.354 94.2811 189.869 106.082C190.426 106.912 191.168 107.188 191.817 107.188C190.426 119.727 188.292 132.174 185.787 144.436C185.508 136.876 184.395 129.408 181.704 121.94C181.055 120.188 179.199 120.004 178.086 121.018C176.879 120.926 175.673 121.571 175.302 122.954C172.426 132.358 174.281 142.684 177.158 151.996C177.714 155.038 178.364 158.081 179.013 160.939C179.292 162.322 180.683 162.875 181.89 162.783C181.89 163.059 181.797 163.336 181.797 163.52C180.498 169.789 179.199 176.151 177.993 182.42C177.529 174.676 175.488 167.208 170.477 161.492C169.364 160.201 167.323 161.031 166.859 162.414C162.684 176.612 167.601 192.469 171.776 206.022C172.055 206.944 172.704 207.497 173.539 207.682C171.869 217.455 170.199 227.32 168.529 237.092C165.745 227.043 159.993 217.27 154.426 211.37C153.405 210.263 151.457 210.54 150.715 211.831C142.086 226.398 154.519 248.248 162.498 260.51C162.962 261.155 163.611 261.432 164.261 261.524C162.591 270.651 160.921 279.779 159.251 288.998C159.251 288.906 159.251 288.906 159.251 288.814C159.251 288.353 159.065 287.984 158.694 287.615C157.488 281.438 155.168 275.63 151.457 271.02C150.436 269.729 148.024 270.467 147.746 272.034C145.983 280.701 145.89 289.828 147.653 298.587C148.766 304.118 150.343 311.31 153.962 316.288C151.921 326.614 149.787 336.94 147.56 347.174C144.034 335.649 135.869 320.806 133.921 317.671C133.179 316.565 131.045 316.196 130.395 317.671C125.385 329.657 131.694 344.224 138.003 356.854C139.302 361.188 140.787 365.429 142.55 369.577C141.715 373.081 140.972 376.677 140.137 380.18C129.56 424.618 118.055 468.872 105.993 512.942C99.2201 525.296 92.5397 537.742 86.2305 550.281C51.0658 620.35 18.4062 696.135 4.0249 773.579C3.74658 775.054 5.88055 775.607 6.34448 774.132C33.0659 695.858 57.1895 618.598 95.6943 544.841C96.715 542.905 97.8284 540.969 98.849 538.941C96.8078 546.132 94.8593 553.323 92.8181 560.515C75.6533 621.18 53.2926 680.185 36.3133 740.85C35.6638 743.155 38.9113 743.8 39.7463 741.772C69.0657 669.582 92.2614 594.166 112.395 518.105C129.838 495.701 148.395 474.588 170.292 456.61C171.405 457.348 173.354 456.61 173.446 455.043C173.446 454.766 173.539 454.397 173.539 454.029C173.91 453.752 174.281 453.476 174.653 453.107C177.25 452 179.848 450.525 182.446 448.681C183.281 448.958 184.116 449.142 184.951 449.327C199.333 456.426 221.601 453.199 233.755 443.795C234.776 442.965 234.312 441.398 233.384 440.845C222.714 433.93 208.24 434.852 195.25 438.355C208.982 429.505 223.178 421.852 237.745 414.938C237.745 415.583 238.116 416.228 238.673 416.505C241.549 418.165 244.704 419.271 248.137 419.916C259.363 424.434 272.26 425.909 283.672 421.484C284.507 421.115 285.157 419.916 284.322 419.179C282.188 417.427 279.776 416.044 277.27 414.753C277.27 414.108 276.992 413.463 276.435 413.186C267.807 408.945 257.137 408.761 247.487 410.328C257.693 405.718 267.992 401.385 278.384 397.236C292.487 406.364 314.847 396.13 326.26 386.91C327.28 386.081 326.631 384.421 325.517 384.144C322.92 383.499 320.136 383.222 317.445 383.13C317.817 382.762 318.188 382.393 318.466 381.932C319.394 380.733 318.095 379.258 316.796 379.166C304.27 378.152 292.023 384.513 280.982 389.584C279.961 390.045 280.703 391.612 281.724 391.336C282.837 391.059 283.858 390.783 284.879 390.506C283.765 391.059 282.559 391.704 281.446 392.35C281.353 392.35 281.353 392.442 281.353 392.534C280.054 392.995 278.662 393.364 277.363 393.825C276.806 393.641 276.25 393.825 275.971 394.286C268.27 396.775 260.569 399.633 252.868 402.768C258.25 397.882 262.611 392.258 264.93 386.449C265.487 385.066 263.91 384.052 262.796 384.329C245.817 387.371 233.199 400.371 221.23 411.711C220.395 412.541 220.58 413.831 221.23 414.569C220.951 414.846 220.58 415.214 220.302 415.491C219.652 416.136 220.487 417.335 221.322 416.782C221.972 416.321 222.621 415.767 223.271 415.214C223.271 415.583 223.456 415.86 223.735 416.044C216.034 420.009 208.426 424.25 201.003 428.767C205.828 421.207 209.075 413.186 209.168 406.364C209.168 405.349 208.147 404.612 207.219 404.888C190.333 410.144 170.477 431.164 169.55 450.157C152.477 463.341 136.797 478.276 123.344 494.687C153.684 442.136 187.735 391.428 225.498 344.039C234.961 332.146 244.704 320.437 254.631 308.913C255.095 309.65 256.487 309.742 256.765 308.636C256.951 307.714 257.137 306.792 257.322 305.87C265.487 296.466 273.745 287.247 282.188 278.027C282.281 278.119 282.466 278.211 282.652 278.304C281.631 278.765 281.167 280.424 282.466 280.977C300.466 289.091 327.095 277.474 341.476 266.318C342.775 265.304 342.218 263.276 341.012 262.538C326.074 254.056 305.105 263.184 289.332 270.467C300.188 258.85 311.322 247.326 322.548 235.986C322.734 236.539 323.012 237 323.755 237.092C324.311 237.184 324.868 237.184 325.332 237.184C325.425 237.184 325.425 237.277 325.517 237.277C332.847 238.936 340.641 238.66 348.157 237.092C362.352 235.617 376.455 231.56 388.146 224.461C389.259 223.816 389.723 222.064 388.61 221.142C370.703 206.668 343.053 222.064 326.26 232.39C340.919 217.731 355.857 203.441 371.167 189.335C374.878 190.994 379.332 191.271 383.878 190.902C389.723 191.548 396.125 189.98 401.971 187.307C410.135 185.094 418.208 182.144 425.445 177.81C426.929 176.888 427.115 174.491 425.445 173.662C409.672 165.548 391.764 174.768 377.847 183.158C391.579 170.619 405.404 158.265 419.507 146.187C419.507 146.372 419.599 146.556 419.785 146.74C425.63 152.549 436.857 150.981 444.001 149.138C452.723 146.925 462.279 143.329 468.31 136.322C469.053 135.4 469.238 133.649 467.939 133.095C454.393 127.472 436.3 134.663 424.702 141.946C423.218 142.868 423.125 144.989 424.702 145.819C424.981 146.003 425.259 146.095 425.63 146.279C424.146 145.911 422.661 145.45 421.362 144.897C421.269 144.897 421.177 144.897 421.084 144.897C434.63 133.28 448.362 121.755 462.187 110.507C477.496 113.919 495.496 113.458 508.578 104.699C509.97 103.777 510.248 101.565 508.578 100.735C497.815 95.2952 485.104 98.0611 473.692 101.933C473.228 102.118 472.671 102.21 472.207 102.394C480.465 95.7562 488.723 89.2103 496.98 82.6644C501.341 83.9552 507.094 82.6644 511.083 81.7425C519.062 79.8986 527.691 77.4093 534.743 73.0761C535.949 72.3385 536.32 70.1258 534.743 69.4804C528.619 66.8989 522.032 66.7145 515.63 68.1896C520.361 64.594 525.093 60.9062 529.825 57.3106C530.846 56.9418 531.867 56.3887 532.887 55.9277C543.372 59.7077 559.516 54.1759 567.681 48.2754C568.794 47.5378 568.701 46.2471 567.681 45.5095C561.928 41.0841 555.433 41.0842 548.939 43.0203C556.361 37.3963 563.877 31.8646 571.392 26.3329C571.485 26.4251 571.485 26.6094 571.67 26.7016C576.402 29.4674 583.639 24.1201 587.443 21.5386C592.918 17.8508 599.412 13.5176 601.918 7.15613C602.196 6.51076 601.732 5.40445 601.083 5.12786C588.835 -0.0350952 573.897 13.6098 566.938 24.1202C559.33 27.9924 551.815 32.2333 544.485 36.7509C548.567 31.4036 552 25.503 554.134 19.2337C554.691 17.6664 552.743 16.5601 551.537 17.2055C545.598 20.2479 541.702 25.5031 538.454 31.127C535.671 36.1056 531.774 41.1763 529.547 46.3393C523.516 50.4881 517.578 54.8213 511.64 59.2467C515.537 51.7788 517.764 44.0344 517.207 37.9495C517.114 36.4744 515.722 35.7368 514.331 36.2899C507.65 39.0558 478.609 70.218 489.743 76.7639C488.537 77.778 487.331 78.8844 486.125 79.8986C485.939 79.8986 485.846 79.9907 485.661 80.0829C485.104 80.2673 484.826 80.6361 484.64 81.097C476.29 88.2883 468.032 95.5718 459.867 103.04C461.444 100.274 462.836 97.4157 464.042 94.8342C467.568 87.4586 471.279 79.5297 471.836 71.3243C471.929 69.5726 469.888 69.2038 468.774 70.0336C456.712 79.1609 447.898 94.8342 447.434 110.047C447.341 111.245 448.269 111.983 449.197 112.075C448.919 112.351 448.64 112.628 448.362 112.812C447.991 113.181 447.898 113.642 447.991 114.011C438.434 122.954 428.878 131.805 419.414 140.656C426.836 129.869 432.032 116.224 430.826 104.884C430.64 103.408 429.063 102.026 427.579 103.04C411.62 113.827 402.063 133.372 399.929 152.088C399.651 154.577 403.177 155.038 404.29 153.286C405.218 151.811 406.146 150.244 406.981 148.677C407.259 148.677 407.445 148.492 407.63 148.216C413.754 137.89 418.671 126.918 424.61 116.5C425.63 114.748 424.053 113.089 422.476 113.089C423.775 111.798 425.073 110.508 426.465 109.401C426.094 124.521 415.702 140.287 406.239 151.074C405.682 151.719 405.775 152.457 406.239 152.918C401.878 156.882 397.61 160.754 393.249 164.534C384.713 172.094 376.177 179.747 367.734 187.399C376.363 175.045 382.115 159.556 379.795 145.542C379.61 144.159 377.847 143.698 376.826 144.251C375.527 144.989 374.228 145.819 372.93 146.74C372.744 146.833 372.651 146.925 372.466 147.109C360.125 156.698 352.053 177.442 352.796 193.023C352.332 194.867 351.775 196.803 351.404 198.647C351.126 199.937 352.239 200.767 353.352 200.675C341.383 211.831 329.507 223.078 317.816 234.511C326.909 221.419 332.291 203.349 328.858 188.597C328.579 187.307 327.095 186.938 325.981 187.399C310.023 194.129 300.466 218.377 304.363 235.709C303.806 238.844 303.342 241.886 302.878 244.929C302.693 246.404 304.734 247.51 305.476 246.035C306.033 244.929 306.497 243.823 306.961 242.716C307.425 243.269 308.074 243.546 308.817 243.546C295.641 256.638 282.837 270.006 270.219 283.651C278.105 273.049 279.033 248.801 278.291 240.319C278.105 238.383 275.879 237.83 274.765 239.397C267.064 250.645 261.961 263.829 259.363 277.382C257.044 285.034 255.466 292.778 254.91 300.707C241.363 316.012 228.188 331.685 215.663 347.911C181.055 392.35 149.044 439.277 120.467 488.141C129.838 451.078 138.653 413.924 147.096 377.045C147.838 377.045 148.581 376.4 148.395 375.478C148.302 374.833 148.117 374.187 147.931 373.542C148.024 373.081 148.117 372.712 148.209 372.343C149.88 364.968 151.55 357.684 153.034 350.309C163.89 361.28 196.364 328.55 201.281 320.99C202.209 319.515 200.632 317.302 198.962 317.948C195.807 319.054 192.745 320.345 189.683 321.82C189.312 321.175 188.57 320.714 187.735 320.714C173.354 320.898 162.22 334.174 154.148 345.146C155.818 337.032 157.488 328.919 159.065 320.806C159.9 320.806 160.642 319.976 160.364 319.146C160.178 318.593 159.9 318.04 159.715 317.487C161.013 310.664 162.312 303.75 163.611 296.927C163.704 297.019 163.89 297.112 163.983 297.204C163.89 297.296 163.797 297.388 163.797 297.48C163.333 298.218 164.261 299.324 165.096 298.771C165.56 298.402 166.117 298.034 166.58 297.757C178.457 298.771 189.034 284.665 196.642 273.786C197.755 273.509 198.869 273.233 199.982 273.049C197.106 285.034 181.055 301.26 168.993 301.168C167.23 301.168 167.323 303.658 168.993 303.842C183.931 305.225 202.209 284.757 203.879 271.112C203.972 270.191 202.951 269.361 202.116 269.361C201.281 269.361 200.353 269.545 199.518 269.637C200.446 268.347 201.281 267.148 202.024 266.042C203.137 264.567 201.096 262.999 199.704 263.737C197.57 264.843 189.591 270.836 182.539 277.382C175.859 282.268 169.921 288.722 165.745 294.715C165.56 294.715 165.374 294.715 165.189 294.715C164.725 294.622 164.354 294.715 164.075 294.899C169.735 264.198 174.838 233.404 180.127 202.519C180.22 202.611 180.312 202.703 180.405 202.795C180.034 204.271 182.075 205.469 183.189 204.271C183.374 204.086 183.56 203.902 183.745 203.717C198.869 205.1 215.477 174.86 218.817 164.258C219.281 162.875 217.797 161.492 216.405 161.861C200.817 166.563 186.9 184.633 181.426 200.03C181.147 199.937 180.869 200.03 180.683 200.122C181.24 196.618 181.89 193.115 182.446 189.611C184.766 176.151 187.735 162.875 190.426 149.506C191.261 149.414 192.096 149.045 192.56 148.4C192.838 148.123 193.024 147.662 193.209 147.294C202.58 147.294 214.92 121.479 217.704 116.685C218.632 115.117 216.776 112.997 215.106 114.103C207.59 118.897 201.931 125.443 196.828 132.634C195.9 133.925 194.323 135.769 192.745 137.705C194.415 127.932 195.807 118.16 196.364 108.295C196.457 106.359 196.549 104.515 196.642 102.579C197.013 102.486 197.292 102.394 197.57 102.118C199.054 100.182 199.982 97.8767 200.817 95.5718C211.209 93.4513 216.219 72.5229 216.962 64.5941C217.147 62.7502 214.735 62.1048 213.529 63.2112C206.848 69.2961 200.261 79.8985 197.199 90.1323C197.755 75.2888 198.312 60.4453 200.168 45.694C200.817 48.3677 201.467 50.9491 202.395 53.5306C203.322 56.1121 207.776 55.9276 207.405 52.8852C206.848 47.4456 205.456 41.8217 204.529 36.1056C207.59 30.4817 207.312 13.702 207.127 11.4893C206.941 9.55317 204.436 8.63123 203.322 10.4751C202.302 12.0425 201.56 13.6099 200.91 15.2694C199.611 15.1772 198.962 15.6382 198.869 16.6523ZM193.58 143.606C195.9 139.826 200.817 133.833 201.745 132.542C203.972 129.5 206.199 126.642 208.797 123.968C204.25 131.805 197.848 141.762 193.58 143.606ZM186.436 199.845C195.158 188.321 199.426 173.846 213.157 167.116C208.611 177.81 197.106 196.987 186.436 199.845ZM177.529 287.247C178.642 286.048 179.848 284.85 181.055 283.743C182.632 282.268 184.024 280.977 185.044 280.055C186.9 278.488 188.941 277.013 191.075 275.814C186.25 282.453 180.127 289.552 173.91 292.871C174.374 291.211 175.766 289.183 177.529 287.247ZM184.209 332.976C185.601 331.224 186.807 329.38 188.013 327.444C189.405 326.614 190.797 325.877 192.281 325.139C189.962 327.536 187.178 330.302 184.209 332.976ZM156.467 348.649C163.983 341.366 170.848 330.302 180.962 326.614C173.261 331.593 166.395 337.954 161.106 345.238C160.364 346.252 160.828 347.543 161.663 348.28C159.622 348.926 157.952 349.11 156.467 348.649ZM263.167 285.772C262.982 285.864 262.796 285.864 262.611 285.956C262.703 285.034 262.796 284.204 262.889 283.282C264.745 276.736 266.972 270.283 269.662 263.921C268.085 271.481 266.229 278.949 263.167 285.772ZM318.095 208.512C317.074 218.192 314.847 227.965 309.559 235.801C312.528 226.766 314.291 217.27 318.095 208.512ZM321.713 218.837C323.198 211.554 323.847 204.086 324.126 196.987C324.126 195.696 323.476 194.959 322.548 194.682C323.569 193.852 324.59 193.023 325.61 192.377C327.095 200.767 325.146 209.802 322.085 217.731C321.992 217.916 321.899 218.376 321.713 218.837ZM407.723 138.166C410.228 130.606 413.94 123.415 418.95 117.238C417.744 119.451 416.537 121.571 415.424 123.784C412.826 128.578 410.321 133.372 407.723 138.166ZM572.505 25.5031C573.804 24.5811 575.103 23.567 576.402 22.6451C577.516 21.8153 577.052 20.3401 576.031 20.0635C581.691 13.8864 587.536 7.34054 595.33 7.52493C599.784 7.61713 596.072 10.0141 593.938 11.9503C591.34 14.3473 588.557 16.5601 585.588 18.4962C582.99 20.3402 576.217 25.5953 572.505 25.5031ZM536.042 54.2681C544.949 49.013 554.042 41.8217 563.691 46.9846C559.516 49.5661 554.691 51.2257 549.959 52.4242C545.784 53.4384 540.681 54.6369 536.042 54.2681ZM548.011 24.3967C545.877 28.9143 543.093 33.1553 539.939 37.0276C542.258 32.6022 544.578 27.9923 548.011 24.3967ZM519.619 71.9698C522.495 71.5088 525.465 71.5088 528.248 72.0619C525.279 73.4449 522.124 74.5511 519.063 75.5653C519.619 75.1965 520.176 74.8278 520.733 74.3668C521.66 73.5371 520.733 71.9698 519.619 71.9698ZM513.31 41.5452C512.753 49.1974 508.485 58.7857 502.547 66.5302C502.269 66.7146 501.99 66.9911 501.712 67.1755C501.712 67.0833 501.805 67.0834 501.805 66.9912C501.99 66.5302 501.99 66.1614 501.712 65.7926C504.588 61.275 507.65 56.8497 510.434 52.1477C511.176 50.8569 509.413 49.8427 508.485 50.6725L508.392 50.5803C505.516 53.8071 502.826 57.2183 500.32 60.814C500.784 59.5232 501.341 58.3247 501.898 57.1262C502.269 56.3886 501.155 55.6511 500.692 56.4808C499.485 58.7857 498.743 61.275 497.351 63.4877C497.073 63.9487 497.351 64.4097 497.722 64.6863C496.331 66.8068 494.846 69.0194 493.547 71.2321C492.991 72.0619 493.269 72.9839 493.826 73.537C493.454 73.8136 493.083 74.0902 492.712 74.3668C488.537 66.6224 504.681 47.8145 513.31 41.5452ZM488.166 107.373C489.836 106.082 491.32 104.515 492.434 102.671C495.681 102.394 498.929 102.579 501.99 103.316C497.537 105.621 492.898 106.82 488.166 107.373ZM432.589 144.251C440.29 142.223 447.527 138.812 455.506 137.982C449.661 143.329 440.475 145.818 432.589 144.251ZM386.29 185.647C394.177 182.328 401.878 177.073 410.135 176.796C406.981 179.286 403.177 181.683 399.187 183.434C398.723 183.526 398.259 183.711 397.888 183.803C393.991 184.725 390.094 185.278 386.29 185.647ZM368.198 167.208C366.528 173.662 364.208 180.023 361.146 185.831C363.558 179.654 365.785 173.385 368.198 167.208ZM371.816 172.555C373.857 165.733 375.342 158.818 376.27 152.088C376.362 158.91 374.692 165.917 371.816 172.555ZM369.033 228.61C372.651 226.305 375.991 223.724 378.868 220.774C378.868 220.774 378.868 220.774 378.868 220.681C380.259 221.142 381.651 221.788 382.95 222.525C378.589 225.015 373.95 227.043 369.033 228.61ZM336.744 233.958C347.785 229.532 358.455 224.277 370.239 222.249C362.074 228.426 351.682 232.667 341.291 233.773C340.363 233.865 339.528 233.958 338.6 233.958C337.95 233.958 337.394 233.958 336.744 233.958ZM324.219 264.29C328.023 264.013 331.734 264.29 335.074 265.396C332.662 267.056 330.064 268.623 327.28 270.191C327.837 269.637 328.301 268.992 328.765 268.439C329.786 267.148 328.672 265.028 327.188 264.751C326.167 264.474 325.239 264.382 324.219 264.29ZM291.373 276.552C301.487 276.368 310.951 269.176 321.249 269.084C313.827 275.261 301.023 278.672 291.373 276.552ZM307.332 387.095C302.229 390.229 296.105 392.35 290.26 392.719C293.136 391.612 296.013 390.506 298.982 389.307C299.26 389.215 299.446 389.031 299.446 388.754C302.136 388.109 304.734 387.556 307.332 387.095ZM281.631 396.222C281.817 396.13 282.002 396.038 282.188 396.038C292.951 398.527 306.033 394.102 314.476 386.541C316.703 386.541 319.023 386.726 321.157 387.002C310.765 394.286 293.507 401.662 281.631 396.222ZM250.456 393.641C246.003 397.421 241.363 401.016 236.446 404.151C240.9 400.279 245.446 396.591 250.456 393.641ZM258.714 420.654C264.374 420.285 269.941 418.994 274.765 417.058C276.714 417.888 278.569 418.81 280.239 419.916C273.281 422.037 265.858 422.037 258.714 420.654ZM244.333 415.306C248.044 414.2 252.033 413.555 256.116 413.463C256.301 413.463 256.487 413.463 256.673 413.463C261.033 413.463 265.394 414.108 269.569 415.214C261.59 417.519 251.941 418.165 244.333 415.306ZM228.559 413.094C240.25 407.747 250.271 398.896 259.549 390.137C253.24 400.555 240.157 409.775 228.559 413.094ZM186.714 445.547C186.807 445.455 186.9 445.362 186.993 445.27C188.477 444.717 189.962 444.164 191.539 443.703C191.725 444.072 192.003 444.348 192.374 444.348C201.745 444.164 211.395 439.37 220.487 442.412C210.652 447.391 197.848 447.759 186.714 445.547ZM188.013 437.341C191.353 433.469 194.879 429.136 198.869 425.817C197.292 428.398 195.622 430.98 193.766 433.469C191.817 434.76 189.869 436.051 188.013 437.341ZM186.529 425.079C189.683 421.392 192.931 417.796 196.735 414.846C197.477 414.2 207.405 405.903 205.549 411.711C204.529 414.846 203.044 418.349 201.188 421.852C201.096 421.852 201.003 421.852 201.003 421.852C195.065 424.434 190.426 429.689 186.065 434.299C182.725 437.802 178.457 441.582 175.116 445.731C177.158 438.171 181.333 431.164 186.529 425.079ZM146.168 354.826C146.075 355.379 145.89 355.932 145.797 356.578C144.034 350.309 141.993 344.132 139.766 337.954C142.642 344.316 145.333 350.862 146.168 354.826ZM153.684 303.197C153.034 301.445 152.57 299.509 152.199 297.573C151.178 291.396 150.807 285.126 151.457 278.949C153.313 282.637 154.519 286.786 155.075 291.027C153.869 295.083 153.405 299.14 153.684 303.197ZM163.519 252.673C157.395 242.44 150.343 228.149 153.684 217.455C155.818 220.036 157.673 222.802 159.251 225.752C158.879 225.937 158.508 226.305 158.601 226.859C159.715 235.617 163.797 244.007 163.519 252.673ZM171.776 188.597C170.199 181.775 169.364 174.86 170.199 168.222C171.22 169.974 172.055 171.818 172.611 173.846C171.962 173.938 171.498 174.399 171.498 175.229C171.591 179.654 171.684 184.08 171.776 188.597ZM211.302 71.0478C209.724 78.1469 206.57 87.7352 201.745 91.0542C202.302 89.2103 202.859 87.4585 203.601 85.7068C205.735 80.5439 208.054 75.4732 211.302 71.0478ZM184.024 78.3312C183.467 78.5156 183.003 78.9766 182.817 79.6219C182.075 76.8561 181.611 74.0902 181.333 71.4165C182.539 73.6292 183.374 75.9341 184.024 78.3312Z" fill="#E7E7E9" fill-opacity="0.5"/>
</g>
<defs>
<filter id="filter0_f" x="0" y="0" width="606" height="779" filterUnits="userSpaceOnUse" color-interpolation-filters="sRGB">
<feFlood flood-opacity="0" result="BackgroundImageFix"/>
<feBlend mode="normal" in="SourceGraphic" in2="BackgroundImageFix" result="shape"/>
<feGaussianBlur stdDeviation="2" result="effect1_foregroundBlur"/>
</filter>
</defs>
</svg>
