<svg width="20" height="20" viewBox="0 0 20 20" fill="none" xmlns="http://www.w3.org/2000/svg">
<g clip-path="url(#clip0)">
<path d="M10.0001 2.45428C4.47732 2.45428 0 6.97414 0 12.5497C0 15.573 1.30468 17.5447 1.30468 17.5447L18.6913 17.5455C18.6913 17.5455 19.9998 15.3907 19.9998 12.5495C19.9998 6.97414 15.5225 2.45428 10.0001 2.45428ZM17.9579 16.3156L2.07395 16.3087C2.07395 16.3087 1.22756 14.7058 1.22756 12.5179C1.22756 7.6311 5.1701 3.66928 10.0336 3.66928C14.897 3.66928 18.8397 7.63089 18.8397 12.5179C18.8399 14.7306 17.9579 16.3156 17.9579 16.3156Z" fill="#BDBDBD"/>
<path d="M12.8254 5.13512L12.6999 5.13491L10.0325 10.3618L7.26908 5.09027L3.48559 14.6134H2.50781V15.3783H7.86442V14.6134H6.80156L7.86442 11.6371L10.0325 15.3783L12.1156 11.6371L13.1783 14.6134H12.1156V15.3783H17.4295V14.6134H16.5089L12.8254 5.13512Z" fill="#BDBDBD"/>
</g>
<defs>
<clipPath id="clip0">
<rect width="19.9998" height="20" fill="white"/>
</clipPath>
</defs>
</svg>
