<svg width="18" height="18" viewBox="0 0 18 18" fill="none" xmlns="http://www.w3.org/2000/svg">
<g clip-path="url(#clip0)">
<path d="M4.12269 3.56945C6.78018 1.16559 10.7572 1.12883 13.4515 3.32319L11.3159 3.40405C11.0402 3.41508 10.8271 3.64297 10.8381 3.91864C10.8491 4.18696 11.0696 4.39647 11.3343 4.39647C11.3416 4.39647 11.3453 4.39647 11.3527 4.39647L14.6313 4.27518C14.8997 4.26415 15.1092 4.04729 15.1092 3.77896V3.74221C15.1092 3.73486 15.1092 3.73118 15.1092 3.72383V3.72015L14.9879 0.478242C14.9769 0.202569 14.7453 -0.0106177 14.4733 0.000409168C14.1976 0.0114361 13.9844 0.239326 13.9955 0.514998L14.0726 2.54763C12.7384 1.45596 11.0954 0.823752 9.33842 0.735537C7.16245 0.625268 5.07101 1.37142 3.4574 2.83433C1.23732 4.8449 0.296354 7.90303 1.00208 10.8141C1.05721 11.042 1.25937 11.1927 1.48359 11.1927C1.52402 11.1927 1.56077 11.189 1.60121 11.178C1.86585 11.1119 2.03126 10.8435 1.96509 10.5789C1.34759 8.02065 2.17093 5.33376 4.12269 3.56945Z" fill="#EBEBEB"/>
<path d="M16.9989 7.18634C16.9327 6.92169 16.6644 6.75629 16.3998 6.82245C16.1351 6.88861 15.9697 7.15693 16.0359 7.42158C16.6571 9.97981 15.83 12.6667 13.8783 14.431C12.5073 15.6697 10.7871 16.2798 9.07421 16.2798C7.43855 16.2798 5.80657 15.7248 4.49069 14.6295L6.65196 14.4347C6.92396 14.4089 7.12612 14.17 7.10039 13.8944C7.07466 13.6187 6.83575 13.4202 6.56007 13.4459L3.29243 13.74C3.02044 13.7657 2.81828 14.0046 2.844 14.2803L3.13806 17.5479C3.16011 17.8052 3.37697 18 3.63059 18C3.64529 18 3.66 18 3.6747 17.9964C3.9467 17.9706 4.14886 17.7317 4.12313 17.456L3.9467 15.4675C5.28095 16.5482 6.91661 17.1767 8.66254 17.2649C8.80221 17.2723 8.94189 17.2759 9.07789 17.2759C11.1032 17.2759 13.0292 16.5335 14.5436 15.1661C16.7636 13.1556 17.7046 10.1011 16.9989 7.18634Z" fill="#EBEBEB"/>
</g>
<defs>
<clipPath id="clip0">
<rect width="18" height="18" fill="white"/>
</clipPath>
</defs>
</svg>
