<svg width="25" height="25" viewBox="0 0 25 25" fill="none" xmlns="http://www.w3.org/2000/svg">
<path d="M12.8179 0C6.20122 0 0.818359 5.38309 0.818359 11.9997C0.818359 14.5893 1.86943 16.9144 2.32143 17.794C2.53187 18.2036 3.03467 18.3648 3.44409 18.1545C3.85363 17.944 4.01504 17.4413 3.8046 17.0318C3.40819 16.2602 2.48596 14.2252 2.48596 11.9996C2.48584 6.30254 7.12079 1.66748 12.8179 1.66748C18.5156 1.66748 23.1509 6.30254 23.1509 11.9997C23.1509 17.697 18.5156 22.3321 12.8179 22.3321C10.5897 22.3321 8.81917 21.5606 8.1613 21.2288C7.9662 21.1303 7.7402 21.1125 7.5321 21.1791L2.28041 22.8573C1.84186 22.9975 1.59985 23.4666 1.74003 23.9053C1.8532 24.2596 2.18114 24.4855 2.53398 24.4855C2.61813 24.4855 2.70362 24.4727 2.78799 24.4457L7.72275 22.8687C8.75514 23.3479 10.5723 23.9996 12.8179 23.9996C19.4349 23.9996 24.8184 18.6165 24.8184 11.9997C24.8184 5.38309 19.4349 0 12.8179 0Z" fill="#2B2B2B"/>
<path d="M10.4523 9.9534C10.0872 10.2339 10.0186 10.7572 10.2989 11.1225C10.5794 11.4877 11.1027 11.5564 11.4681 11.2759C11.7236 11.0796 12.4025 10.5582 12.3031 9.62568C12.2419 9.07129 11.701 8.31059 11.258 7.77021C10.6098 6.97938 10.061 6.51104 9.63017 6.3792C9.22641 6.25402 8.81266 6.27381 8.40001 6.43811C7.55115 6.77739 6.95208 7.33945 6.66749 8.06358C6.39036 8.76881 6.44071 9.55798 6.81345 10.3466C7.68355 12.1833 8.84645 13.7695 10.2699 15.0615C10.2755 15.0667 10.2812 15.0718 10.2868 15.0769C11.7305 16.3531 13.4386 17.3364 15.3643 17.9998C15.7297 18.1253 16.0883 18.1879 16.4327 18.1879C16.8654 18.1879 17.2757 18.0892 17.6489 17.8924C18.3371 17.5296 18.8296 16.8722 19.0734 15.9898C19.1907 15.562 19.1645 15.1489 18.9968 14.7643C18.8168 14.348 18.2909 13.8545 17.4333 13.2977C16.8476 12.9173 16.0325 12.464 15.4724 12.464C15.472 12.464 15.4716 12.464 15.4711 12.464C14.5367 12.4677 14.093 13.2 13.9261 13.4758C13.6875 13.8696 13.8133 14.3823 14.2072 14.6209C14.6008 14.8595 15.1136 14.7337 15.3523 14.3398C15.4182 14.2308 15.46 14.173 15.4863 14.1428C15.9572 14.2795 17.2168 15.1035 17.4749 15.4502C17.4791 15.4687 17.4797 15.4966 17.4658 15.5474C17.3836 15.8447 17.2137 16.237 16.8712 16.4176C16.5511 16.5861 16.1695 16.5135 15.9066 16.4232C14.1932 15.8329 12.6769 14.9623 11.3996 13.8354C11.3993 13.8351 11.3988 13.8347 11.3985 13.8343C10.1337 12.6884 9.09813 11.2749 8.32052 9.63357C8.20147 9.38145 8.08708 9.01027 8.21936 8.67377C8.36099 8.31337 8.73217 8.10126 9.01787 7.9871C9.06689 7.96753 9.09457 7.96453 9.11469 7.9672C9.48799 8.18564 10.4452 9.34587 10.6332 9.79887C10.6061 9.82811 10.5532 9.87591 10.4523 9.9534Z" fill="#2B2B2B"/>
</svg>
