<svg width="24" height="26" viewBox="0 0 24 26" fill="none" xmlns="http://www.w3.org/2000/svg">
<path d="M21.5734 2.82404C19.578 0.86777 16.352 -0.0801162 11.9833 0.00529699C7.57831 0.0919336 4.63378 0.865101 2.71676 2.43857C0.863252 3.95977 0 6.18574 0 9.44379V12.7689C0 16.6152 2.06104 20.8437 6.00017 21.4835C6.45493 21.5579 6.88333 21.2487 6.95717 20.7938C7.03102 20.3392 6.72229 19.9107 6.26753 19.8368C3.28018 19.3516 1.66823 15.8331 1.66823 12.7689V9.44379C1.66823 4.77209 3.39929 1.84257 12.016 1.67308C15.9224 1.59567 18.742 2.3843 20.4053 4.01516C21.7015 5.28624 22.3317 7.0619 22.3317 9.44379V12.7689C22.3317 17.8041 20.0717 20.0249 14.2751 20.6789H10.1648C9.94363 20.6789 9.73143 20.7667 9.57507 20.9232L6.67891 23.8193C6.35316 24.1451 6.35316 24.6733 6.67891 24.999C6.84173 25.1618 7.05526 25.2433 7.26869 25.2433C7.48211 25.2433 7.69564 25.1619 7.85846 24.999L10.5104 22.3471H14.3217C14.3524 22.3471 14.3832 22.3454 14.4138 22.342C17.7311 21.9735 20.0028 21.1101 21.5626 19.6248C23.2027 18.0629 24 15.8203 24 12.7688V9.44379C24 6.63016 23.1836 4.40297 21.5734 2.82404Z" fill="#2B2B2B"/>
<path d="M12.5207 5.44814C12.5209 5.44814 12.5209 5.44814 12.5211 5.44814C13.8651 5.44814 15.1287 5.97163 16.0792 6.92208C17.0297 7.87263 17.5532 9.13648 17.5531 10.4807C17.5531 10.9414 17.9265 11.3149 18.3871 11.3149C18.3872 11.3149 18.3872 11.3149 18.3872 11.3149C18.8479 11.3149 19.2213 10.9415 19.2213 10.4809C19.2215 8.69096 18.5245 7.00816 17.2588 5.74253C15.9933 4.4769 14.3109 3.78003 12.5211 3.78003C12.521 3.78003 12.5206 3.78003 12.5205 3.78003C12.0599 3.78003 11.6865 4.15349 11.6865 4.61414C11.6866 5.07468 12.0601 5.44814 12.5207 5.44814Z" fill="#2B2B2B"/>
<path d="M12.5205 8.38136C13.6781 8.38158 14.6199 9.32335 14.62 10.4808C14.6202 10.9414 14.9935 11.3149 15.4543 11.3148C15.915 11.3148 16.2884 10.9412 16.2883 10.4805C16.2879 8.40349 14.5979 6.71347 12.5207 6.71313H12.5206C12.06 6.71313 11.6866 7.08648 11.6865 7.54714C11.6865 8.00779 12.0599 8.38136 12.5205 8.38136Z" fill="#2B2B2B"/>
<path d="M8.78056 9.81067C8.40032 10.0707 8.30278 10.5897 8.56269 10.97C8.8226 11.3502 9.34175 11.4476 9.722 11.1877C10.0211 10.9833 10.7215 10.5044 10.6723 9.54709C10.6412 8.97411 10.1244 8.15602 9.69631 7.57058C9.07017 6.714 8.53055 6.19807 8.09581 6.03815C7.68988 5.88701 7.26537 5.88378 6.83319 6.0288C5.93802 6.33042 5.28808 6.87548 4.95376 7.60506C4.62824 8.31528 4.63547 9.13148 4.97478 9.96593C5.7762 11.932 6.89814 13.6533 8.31691 15.0893C9.74547 16.5005 11.4666 17.6224 13.4335 18.4243C13.8591 18.5974 14.2802 18.6841 14.6849 18.6841C15.073 18.6841 15.4461 18.6045 15.7938 18.4451C16.5234 18.1107 17.0683 17.4608 17.3703 16.5645C17.5148 16.1334 17.5116 15.7091 17.3617 15.3059C17.2007 14.8681 16.6846 14.3286 15.8282 13.7024C15.2426 13.2744 14.4245 12.7575 13.8493 12.7263C12.894 12.6782 12.4155 13.3775 12.2111 13.6765C11.9511 14.0568 12.0484 14.5758 12.4286 14.8359C12.809 15.0961 13.3279 14.9986 13.5881 14.6184C13.6788 14.4857 13.7306 14.4254 13.7603 14.3991C14.2285 14.5491 15.5637 15.53 15.804 15.9059C15.8099 15.93 15.8112 15.9665 15.789 16.0332C15.6838 16.3456 15.4786 16.7545 15.0988 16.9287C14.743 17.0915 14.3388 16.9916 14.0627 16.8794C12.3003 16.1608 10.7616 15.1593 9.49646 13.9096C8.23961 12.6374 7.23812 11.0988 6.52 9.33701C6.40746 9.06031 6.30747 8.65582 6.4704 8.30037C6.64445 7.92057 7.0535 7.71527 7.36491 7.61028C7.43141 7.58804 7.468 7.58926 7.49336 7.59538C7.86938 7.83616 8.84974 9.17052 8.99988 9.63885C8.97341 9.6681 8.91324 9.72003 8.78056 9.81067Z" fill="#2B2B2B"/>
</svg>
