<svg width="25" height="22" viewBox="0 0 25 22" fill="none" xmlns="http://www.w3.org/2000/svg">
<path d="M19.6625 21.4674C19.4751 21.4674 19.2889 21.412 19.1291 21.3036L13.0946 17.2103L9.85797 19.5392C9.60412 19.7217 9.27694 19.7677 8.98219 19.6623C8.68781 19.5567 8.46424 19.3128 8.38444 19.0105L6.7593 12.8516L0.952483 10.6313C0.586921 10.4914 0.344479 10.1417 0.341819 9.75031C0.339159 9.35891 0.576787 9.00588 0.940576 8.8611L23.0202 0.0754467C23.1204 0.0328864 23.2264 0.00831286 23.3334 0.00172615C23.3716 -0.000553866 23.41 -0.000553797 23.4481 0.00159955C23.6695 0.014773 23.887 0.10496 24.0568 0.271401C24.0744 0.288628 24.0911 0.306235 24.1069 0.324602C24.2475 0.485216 24.3248 0.681044 24.3393 0.880545C24.3429 0.930705 24.3426 0.981499 24.3382 1.03229C24.3352 1.06852 24.33 1.10462 24.3226 1.14047L20.5957 20.6953C20.5358 21.0094 20.322 21.2724 20.0266 21.3948C19.9094 21.4435 19.7857 21.4674 19.6625 21.4674ZM13.6244 15.2738L18.9998 18.9199L21.8997 3.70409L11.426 13.7825L13.5991 15.2567C13.6078 15.2621 13.6162 15.2679 13.6244 15.2738ZM9.14964 14.463L9.86937 17.1901L11.42 16.0743L9.38955 14.6969C9.29518 14.6331 9.21437 14.5535 9.14964 14.463ZM3.90573 9.72612L7.89297 11.2506C8.17861 11.3597 8.3942 11.5999 8.47222 11.8955L8.97788 13.8119C9.00106 13.5909 9.10126 13.3829 9.26402 13.2262L19.244 3.62302L3.90573 9.72612Z" fill="#2B2B2B"/>
</svg>
