<svg width="25" height="24" viewBox="0 0 25 24" fill="none" xmlns="http://www.w3.org/2000/svg">
<path d="M17.7185 0H6.96479C3.31287 0 0.341797 2.97122 0.341797 6.62313V17.3769C0.341797 21.0289 3.31287 24 6.96479 24H17.7185C21.3707 24 24.3418 21.0288 24.3418 17.3769V6.62313C24.3419 2.97122 21.3707 0 17.7185 0ZM22.2125 17.3769C22.2125 19.8548 20.1966 21.8706 17.7187 21.8706H6.96479C4.48702 21.8707 2.47119 19.8548 2.47119 17.3769V6.62313C2.47119 4.14537 4.48702 2.1294 6.96479 2.1294H17.7185C20.1964 2.1294 22.2124 4.14537 22.2124 6.62313V17.3769H22.2125Z" fill="#2B2B2B"/>
<path d="M12.3414 5.81604C8.9314 5.81604 6.15723 8.59022 6.15723 12.0002C6.15723 15.4101 8.9314 18.1841 12.3414 18.1841C15.7514 18.1841 18.5256 15.4101 18.5256 12.0002C18.5256 8.59022 15.7514 5.81604 12.3414 5.81604ZM12.3414 16.0546C10.1057 16.0546 8.28662 14.2358 8.28662 12.0001C8.28662 9.76422 10.1056 7.94529 12.3414 7.94529C14.5773 7.94529 16.3962 9.76422 16.3962 12.0001C16.3962 14.2358 14.5771 16.0546 12.3414 16.0546Z" fill="#2B2B2B"/>
<path d="M18.7852 4.0105C18.3749 4.0105 17.9719 4.17659 17.6822 4.46761C17.391 4.75721 17.2236 5.16037 17.2236 5.57206C17.2236 5.98246 17.3911 6.38548 17.6822 6.6765C17.9718 6.9661 18.3749 7.13361 18.7852 7.13361C19.1969 7.13361 19.5986 6.9661 19.8896 6.6765C20.1807 6.38548 20.3467 5.98232 20.3467 5.57206C20.3467 5.16037 20.1807 4.75721 19.8896 4.46761C19.6 4.17659 19.1969 4.0105 18.7852 4.0105Z" fill="#2B2B2B"/>
</svg>
