<svg width="18" height="16" viewBox="0 0 18 16" fill="none" xmlns="http://www.w3.org/2000/svg">
<path d="M7.40625 13.9967C8.00881 15.1049 8.8413 15.8372 8.88938 15.8789C8.98112 15.9586 9.0964 15.9984 9.21168 15.9984C9.32695 15.9984 9.44236 15.9586 9.5341 15.8789C9.58217 15.8372 10.4144 15.1049 11.017 13.9967C10.3078 13.723 9.69481 13.3475 9.21168 12.9919C8.72842 13.3475 8.11553 13.723 7.40625 13.9967Z" fill="#A3C6C3"/>
<path d="M16.333 9.93726C16.2432 10.036 16.1508 10.1321 16.0556 10.2244C15.1061 11.1453 13.846 11.8038 12.31 12.1818C11.4943 12.3824 10.7384 12.4678 10.1689 12.5021C10.9242 12.9916 11.9484 13.4628 13.0935 13.4628C15.4265 13.4628 17.2585 11.5072 17.3354 11.424C17.4996 11.246 17.4996 10.9767 17.3354 10.7987C17.3102 10.7715 16.9392 10.374 16.333 9.93726Z" fill="#A3C6C3"/>
<path d="M6.11353 12.1819C4.57755 11.804 3.3173 11.1454 2.36777 10.2244C2.27251 10.1321 2.18026 10.0361 2.09028 9.93726C1.48419 10.374 1.11319 10.7716 1.08802 10.7987C0.923786 10.9767 0.923786 11.2461 1.08802 11.4241C1.16491 11.5073 2.99689 13.4628 5.32975 13.4628C6.47497 13.4628 7.49913 12.9916 8.25447 12.5021C7.685 12.4678 6.92916 12.3824 6.11353 12.1819Z" fill="#A3C6C3"/>
<path d="M8.88931 11.4606C8.98105 11.5403 9.09633 11.5802 9.21161 11.5802C9.32689 11.5802 9.44216 11.5403 9.53403 11.4606C9.65258 11.3577 12.4379 8.90271 12.4379 5.79004C12.4379 2.67749 9.65258 0.222534 9.53403 0.119507C9.44229 0.0397949 9.32689 0 9.21161 0C9.09633 0 8.98105 0.0397949 8.88931 0.119507C8.77063 0.222534 5.98535 2.67749 5.98535 5.79004C5.98535 8.90259 8.77076 11.3577 8.88931 11.4606Z" fill="#A3C6C3"/>
<path d="M14.3483 2.40989C14.114 1.6229 13.8618 1.10789 13.8458 1.07591C13.7392 0.860452 13.4826 0.757425 13.2502 0.836526C13.2157 0.848367 12.6621 1.03929 11.9229 1.43504C12.2428 1.90672 12.5138 2.3867 12.7326 2.86826C13.2849 2.66026 13.8344 2.51304 14.3483 2.40989Z" fill="#A3C6C3"/>
<path d="M6.4997 1.43509C5.76059 1.03934 5.20698 0.848418 5.17237 0.836577C4.93993 0.757354 4.68333 0.860503 4.57673 1.07584C4.56088 1.10794 4.30855 1.62295 4.07422 2.40994C4.58806 2.51297 5.13764 2.66019 5.68999 2.86819C5.90871 2.38687 6.17979 1.90677 6.4997 1.43509Z" fill="#A3C6C3"/>
<path d="M13.4037 5.79004C13.4037 6.61584 13.2354 7.46326 12.9033 8.30847C12.6432 8.97083 12.2819 9.63428 11.8293 10.2806C11.4842 10.7736 11.1351 11.1858 10.8467 11.498C12.1773 11.3312 14.0334 10.8594 15.3716 9.56152C17.6406 7.3606 17.4608 3.71423 17.452 3.56006C17.4384 3.32153 17.2421 3.1311 16.9962 3.11792C16.9744 3.11682 16.8679 3.11157 16.695 3.11157C16.069 3.11157 14.5726 3.17896 13.0723 3.74561C13.2924 4.43286 13.4037 5.11853 13.4037 5.79004Z" fill="#A3C6C3"/>
<path d="M7.57596 11.4982C7.28751 11.1858 6.93841 10.7736 6.59333 10.2806C6.14078 9.63428 5.77934 8.97083 5.51921 8.30847C5.18722 7.46326 5.01884 6.61584 5.01884 5.79004C5.01884 5.11853 5.13009 4.43286 5.35032 3.74561C3.85008 3.17896 2.35374 3.11157 1.72777 3.11157C1.5546 3.11157 1.44813 3.1167 1.42636 3.11792C1.18045 3.1311 0.98413 3.32153 0.970538 3.56006C0.961729 3.71423 0.781891 7.3606 3.05094 9.56152C4.38922 10.8595 6.24536 11.3312 7.57596 11.4982Z" fill="#A3C6C3"/>
</svg>
