<svg width="16" height="16" viewBox="0 0 16 16" fill="none" xmlns="http://www.w3.org/2000/svg">
<path d="M8 0C3.60596 0 0 3.60596 0 8C0 12.394 3.60596 16 8 16C9.3999 16 10.7782 15.6301 11.9852 14.9302L11.5146 14.119C10.4504 14.7361 9.23499 15.0625 8 15.0625C4.1228 15.0625 0.9375 11.8772 0.9375 8C0.9375 4.1228 4.1228 0.9375 8 0.9375C11.8772 0.9375 15.0625 4.1228 15.0625 8C15.0625 9.24695 14.7362 10.4646 14.125 11.5225V10.375H13.1875V13.1875H16V12.25H14.7805C15.5679 10.9897 16 9.49304 16 8C16 3.60596 12.394 0 8 0Z" fill="#939393"/>
<path d="M8 2.8125C5.15686 2.8125 2.8125 5.15686 2.8125 8C2.8125 10.8431 5.15686 13.1875 8 13.1875C10.8431 13.1875 13.1875 10.8431 13.1875 8C13.1875 5.15686 10.8431 2.8125 8 2.8125ZM11.2812 8.46875H7.53125V4.6875H8.46875V7.53125H11.2812V8.46875Z" fill="#939393"/>
</svg>
